<svg xmlns="http://www.w3.org/2000/svg" version="1.1" x="0" y="0" viewBox="0 0 297 174" xml:space="preserve"><style type="text/css">
	.st0{fill:#FF5D00;}
	.st1{fill:#FFFFFF;}
</style><path class="st0" d="M0 0v102c0 39.8 32.2 72 72 72s72-32.2 72-72V0H0z"/><path class="st0" d="M297 72c0-39.8-32.2-72-72-72h-72v171h78.9v-27.3C268.4 140.2 297 109.4 297 72z"/><path class="st1" d="M179.2 45.2c8.3 0 12.9-4.9 12.9-11.1V13.5h-8.9v18.8c0 2.9-1.2 4.5-3.9 4.5 -2.7 0-3.9-1.6-3.9-4.5V13.5h-8.9v20.6C166.6 40.2 171 45.2 179.2 45.2zM205.6 36h2.9c8.2 0 12.3-5.3 12.3-11.4 0-6.1-4.1-11.1-12.3-11.1h-11.8v31.1h8.9V36zM205.6 21.3h1.8c2.3 0 4.2 1 4.2 3.4s-1.9 3.4-4.2 3.4h-1.8V21.3z"/><polygon class="st1" points="180.4 80.6 184.5 63.4 188.8 80.6 199.1 80.6 205.6 49.5 196.3 49.5 193.4 67 193.3 67 188.9 49.5 180.5 49.5 175.8 67 175.7 67 173 49.5 163.3 49.5 169.7 80.6 "/><path class="st1" d="M206.6 65c0 9.4 7.3 16.1 16.4 16.1 9.1 0 16.4-6.7 16.4-16.1 0-9.4-7.3-16.1-16.4-16.1C213.9 48.9 206.6 55.7 206.6 65zM223 57.3c4.2 0 6.9 3.2 6.9 7.7 0 4.4-2.7 7.7-6.9 7.7s-6.9-3.3-6.9-7.7C216.1 60.6 218.8 57.3 223 57.3zM263.8 69c3.8-1.9 5.7-4.8 5.7-9.2 0-5.5-4.4-10.3-12-10.3h-14.4v31.1h8.9V70.3h2.9l5.6 10.4h10L263.8 69zM256.7 62.7h-4.6v-5.4h4.6c2.6 0 3.6 1.2 3.6 2.7S259.3 62.7 256.7 62.7z"/><polygon class="st1" points="212 96.6 202.4 96.6 202.4 85.2 166.6 85.2 166.6 93.3 175.3 93.3 175.3 116.3 184.4 116.3 184.4 93.3 193.4 93.3 193.4 116.3 202.4 116.3 202.4 104.8 212 104.8 212 116.3 220.9 116.3 220.9 85.2 212 85.2 "/><polygon class="st1" points="236.9 94.3 236.7 94.3 232 85.2 220.9 85.2 232.2 104.4 232.2 116.3 241.1 116.3 241.1 104.3 252.1 85.2 241.8 85.2 "/></svg>